<svg viewBox="0 0 200 191.254" xmlns="http://www.w3.org/2000/svg">
<path fill="rgb(13,24,81)" d="M196.193,94.920L197.044,96.474L197.853,98.058L198.582,99.667L199.192,101.297L199.649,102.938L199.924,104.582L200.000,106.216L199.871,107.832L199.545,109.419L199.041,110.973L198.388,112.490L197.623,113.970L196.784,115.417L195.908,116.838L195.027,118.239L194.164,119.627L193.332,121.009L192.536,122.388L191.771,123.765L191.023,125.138L190.277,126.503L189.516,127.855L188.723,129.185L187.886,130.488L186.999,131.758L186.059,132.992L185.070,134.189L184.039,135.351L182.978,136.481L181.897,137.585L180.809,138.668L179.722,139.737L178.646,140.798L177.585,141.856L176.541,142.913L175.514,143.972L174.503,145.034L173.503,146.097L172.512,147.161L171.524,148.224L170.536,149.282L169.544,150.335L168.544,151.379L167.535,152.412L166.514,153.434L165.481,154.444L164.435,155.440L163.378,156.424L162.311,157.398L161.235,158.364L160.154,159.326L159.072,160.290L157.994,161.264L156.924,162.258L155.868,163.283L154.832,164.352L153.821,165.479L152.838,166.677L151.886,167.959L150.962,169.333L150.063,170.804L149.179,172.368L148.300,174.015L147.412,175.727L146.496,177.476L145.537,179.230L144.518,180.952L143.426,182.603L142.251,184.147L140.988,185.555L139.638,186.805L138.206,187.886L136.700,188.795L135.131,189.540L133.512,190.132L131.852,190.588L130.163,190.922L128.452,191.142L126.725,191.253L124.986,191.254L123.239,191.137L121.488,190.894L119.737,190.514L117.992,189.995L116.260,189.337L114.547,188.550L112.859,187.652L111.204,186.669L109.583,185.629L108.000,184.566L106.453,183.511L104.941,182.493L103.460,181.532L102.005,180.646L100.570,179.841L99.150,179.120L97.740,178.478L96.337,177.906L94.937,177.394L93.539,176.928L92.143,176.496L90.747,176.086L89.353,175.687L87.961,175.290L86.572,174.888L85.187,174.476L83.807,174.049L82.434,173.604L81.066,173.139L79.707,172.653L78.355,172.146L77.013,171.615L75.679,171.062L74.355,170.486L73.042,169.887L71.739,169.265L70.447,168.621L69.166,167.954L67.898,167.266L66.641,166.555L65.397,165.822L64.166,165.068L62.949,164.292L61.745,163.495L60.555,162.678L59.380,161.839L58.219,160.980L57.074,160.102L55.944,159.203L54.830,158.285L53.733,157.347L52.651,156.390L51.587,155.415L50.540,154.421L49.510,153.409L48.498,152.380L47.504,151.333L46.529,150.268L45.573,149.187L44.635,148.089L43.717,146.975L42.818,145.845L41.939,144.700L41.080,143.540L40.242,142.364L39.424,141.175L38.628,139.971L37.852,138.753L37.098,137.522L36.365,136.278L35.654,135.022L34.965,133.753L34.298,132.473L33.654,131.181L33.033,129.878L32.434,128.564L31.858,127.240L31.305,125.907L30.774,124.564L30.266,123.213L29.781,121.853L29.316,120.486L28.871,119.112L28.443,117.732L28.030,116.348L27.625,114.960L27.222,113.569L26.813,112.177L26.384,110.784L25.922,109.393L25.408,108.001L24.820,106.610L24.138,105.217L23.335,103.819L22.389,102.410L21.279,100.984L19.990,99.532L18.515,98.045L16.858,96.511L15.034,94.920L13.076,93.263L11.028,91.534L8.951,89.729L6.917,87.852L5.005,85.909L3.299,83.915L1.878,81.890L0.818,79.857L0.178,77.843L-0.000,75.877L0.307,73.987L1.096,72.197L2.343,70.527L4.003,68.991L6.012,67.593L8.295,66.330L10.768,65.193L13.348,64.166L15.953,63.226L18.513,62.349L20.968,61.512L23.275,60.689L25.404,59.860L27.340,59.008L29.081,58.120L30.634,57.186L32.012,56.202L33.234,55.167L34.319,54.078L35.284,52.937L36.143,51.744L36.908,50.497L37.586,49.193L38.182,47.828L38.699,46.395L39.138,44.889L39.503,43.304L39.801,41.638L40.045,39.892L40.251,38.072L40.444,36.195L40.652,34.280L40.909,32.357L41.250,30.461L41.710,28.631L42.321,26.908L43.105,25.329L44.078,23.928L45.245,22.729L46.599,21.745L48.123,20.979L49.793,20.419L51.577,20.045L53.441,19.826L55.350,19.728L57.272,19.713L59.180,19.745L61.052,19.789L62.874,19.818L64.635,19.810L66.332,19.750L67.968,19.632L69.547,19.452L71.075,19.214L72.562,18.923L74.014,18.588L75.441,18.217L76.849,17.821L78.245,17.407L79.633,16.985L81.018,16.559L82.401,16.135L83.784,15.715L85.169,15.300L86.555,14.889L87.944,14.481L89.333,14.068L90.724,13.646L92.116,13.205L93.508,12.735L94.902,12.225L96.299,11.665L97.701,11.045L99.111,10.355L100.534,9.593L101.974,8.756L103.437,7.852L104.926,6.891L106.446,5.891L108.000,4.877L109.589,3.878L111.212,2.927L112.866,2.058L114.546,1.305L116.243,0.700L117.948,0.270L119.650,0.033L121.340,-0.000L123.006,0.173L124.641,0.542L126.238,1.090L127.795,1.789L129.313,2.603L130.795,3.492L132.250,4.414L133.690,5.328L135.126,6.194L136.571,6.985L138.038,7.682L139.535,8.277L141.066,8.779L142.629,9.208L144.217,9.596L145.816,9.983L147.407,10.410L148.968,10.922L150.476,11.555L151.909,12.338L153.250,13.286L154.487,14.402L155.613,15.677L156.633,17.091L157.554,18.613L158.392,20.210L159.165,21.848L159.895,23.492L160.602,25.115L161.304,26.693L162.017,28.214L162.753,29.668L163.517,31.054L164.314,32.376L165.143,33.641L166.000,34.859L166.881,36.039L167.778,37.192L168.687,38.328L169.600,39.454L170.513,40.578L171.420,41.704L172.318,42.836L173.203,43.977L174.074,45.130L174.927,46.295L175.762,47.472L176.577,48.664L177.373,49.868L178.148,51.086L178.902,52.318L179.635,53.562L180.345,54.818L181.034,56.087L181.701,57.367L182.345,58.659L182.966,59.962L183.565,61.276L184.141,62.600L184.694,63.933L185.224,65.276L185.731,66.628L186.216,67.988L186.678,69.356L187.119,70.731L187.541,72.112L187.945,73.499L188.334,74.890L188.714,76.286L189.088,77.684L189.465,79.085L189.853,80.487L190.261,81.891L190.701,83.297L191.184,84.706L191.720,86.121L192.318,87.543L192.982,88.977L193.712,90.428L194.501,91.899L195.336,93.396Z" />
</svg>